<svg width="243" height="56" viewBox="0 0 243 56" fill="none" xmlns="http://www.w3.org/2000/svg">
<path d="M70.3037 1C69.5905 1.91593 68.8081 2.84971 67.9852 3.74441C65.6251 6.3104 63.2405 8.85277 60.8807 11.419C58.1425 14.3965 55.4136 17.383 52.6946 20.3788C51.5264 21.6659 50.3931 22.9862 49.1584 24.3886C56.2177 31.62 63.2421 38.8156 70.3223 46.0683C66.975 46.0683 63.6528 46.0832 60.3314 46.043C60.0313 46.0394 59.6885 45.7289 59.4445 45.4798C53.3261 39.2316 47.2181 32.9729 41.1099 26.7144C40.872 26.4706 40.6506 26.2102 40.2853 25.8074C40.2853 32.6605 40.2853 39.3104 40.2853 46.0142C37.007 46.0142 33.8126 46.0142 30.5414 46.0142C30.5414 38.0796 30.5414 30.1445 30.5414 22.2094C30.4269 22.1179 30.3124 22.0264 30.1979 21.9348C26.9387 25.5482 23.6795 29.1616 20.4203 32.775C20.2111 32.7683 20.0018 32.7615 19.7926 32.7548C19.6329 32.4406 19.5362 32.0626 19.3041 31.8215C13.2241 25.5061 7.13039 19.2045 1.0367 12.9028C0.796945 12.6549 0.534218 12.4302 0.234725 12.2549C0.187256 8.56623 0.187256 4.81739 0.187256 1C1.06318 1 1.94082 1 2.84821 1.04863C5.91162 4.29165 8.93222 7.49919 11.983 10.6763C14.4526 13.2482 16.9578 15.7841 19.4498 18.3334C19.6394 18.5274 19.8494 18.7006 20.0237 18.8596C25.7995 13.0333 31.5212 7.26321 37.2353 1.48533C37.3492 1.37016 37.3752 1.16381 37.4423 1C38.3201 1 39.198 1 40.1632 1.08988C40.2504 7.93156 40.2504 14.6834 40.2504 21.709C43.067 18.727 45.6866 15.9298 48.3319 13.1583C52.0305 9.28335 55.7496 5.42907 59.4517 1.55761C59.5862 1.41689 59.6328 1.18787 59.7204 1C63.2189 1 66.7174 1 70.3037 1Z" fill="white"/>
<path d="M0.187256 21C3.28613 23.9866 6.38793 27.0599 9.4751 30.1486C9.62703 30.3006 9.72367 30.5864 9.7243 30.8102C9.73825 35.7226 9.73495 40.635 9.73495 45.6498C6.57471 45.6498 3.46872 45.6498 0.274993 45.6498C0.187256 37.4632 0.187256 29.2765 0.187256 21Z" fill="white"/>
<path d="M214.209 33.9029C214.504 39.5308 210.583 44.5031 205.354 45.9077C204.74 46.0727 204.088 46.161 203.453 46.1619C192.943 46.1772 182.434 46.1883 171.924 46.1614C169.437 46.1551 167.242 45.1543 165.356 43.5634C163.386 41.9016 161.928 39.8233 161.369 37.214C160.473 33.0322 161.154 29.234 164.012 25.9512C165.875 23.8106 168.212 22.6064 170.908 22.0414C171.178 21.9848 171.465 22.0093 171.745 22.0093C182.317 22.008 192.889 21.9794 203.461 22.0296C205.933 22.0413 208.11 23.0966 209.999 24.7083C212.263 26.6401 213.626 29.1337 214.161 32.0921C214.261 32.6484 214.197 33.236 214.209 33.9029ZM189.965 27.57C184.536 27.57 179.107 27.5647 173.679 27.5718C169.967 27.5767 167.129 30.4082 167.124 34.0922C167.118 37.7486 169.98 40.6063 173.677 40.609C182.881 40.6156 192.085 40.615 201.289 40.6093C204.997 40.607 207.84 37.7694 207.843 34.0912C207.847 30.4288 204.99 27.5793 201.29 27.5717C197.578 27.564 193.865 27.57 189.965 27.57Z" fill="white"/>
<path d="M86.9131 29.3194C84.9144 24.5545 82.9563 19.8525 80.937 15.0034C83.4797 15.0034 85.8672 14.985 88.2533 15.0335C88.4784 15.0381 88.7834 15.4239 88.902 15.7C89.8623 17.9361 90.7901 20.187 91.7215 22.4361C92.9468 25.3948 94.1669 28.3557 95.3879 31.3163C96.1149 33.0791 96.8392 34.8431 97.6072 36.7096C100.683 29.4225 103.715 22.2419 106.758 15.0341C109.06 15.0341 111.362 15.0341 113.82 15.0341C109.492 25.2755 105.182 35.4745 100.867 45.6865C98.6668 45.6865 96.5157 45.7063 94.3658 45.6603C94.1083 45.6548 93.7394 45.3469 93.6229 45.0853C92.472 42.501 91.35 39.9029 90.2468 37.2966C89.1332 34.6656 88.0502 32.0209 86.9131 29.3194Z" fill="white"/>
<path d="M223.155 22.8057C223.155 23.524 223.155 24.1517 223.155 24.9243C225.524 22.6768 228.267 21.853 231.289 22.0211C235.763 22.2699 239.37 24.8525 239.993 29.9056C240.139 31.0926 240.177 32.2995 240.183 33.4976C240.206 37.6161 240.192 41.7347 240.192 45.9172C237.966 45.9172 235.77 45.9172 233.452 45.9172C233.452 45.6426 233.452 45.3378 233.452 45.0329C233.452 41.1676 233.482 37.3018 233.436 33.437C233.42 32.0749 233.201 30.7221 232.331 29.5888C231.11 27.9994 229.353 27.8917 227.702 28.2002C225.151 28.6766 223.658 30.2967 223.551 33.1098C223.404 37.0203 223.405 40.9368 223.344 44.8507C223.338 45.1955 223.343 45.5405 223.343 45.9329C221.086 45.9329 218.89 45.9329 216.648 45.9329C216.648 38.1051 216.648 30.2962 216.648 22.3931C218.712 22.3931 220.76 22.3878 222.808 22.4068C222.924 22.4079 223.039 22.6077 223.155 22.8057Z" fill="white"/>
<path d="M144.953 28.3481C144.811 28.6262 144.712 28.8447 144.587 29.119C142.232 27.6359 139.672 27.1976 137.006 27.3525C136.302 27.3935 135.591 27.6363 134.919 27.8867C134.109 28.1887 133.599 28.8606 133.899 29.7233C134.07 30.2128 134.616 30.7719 135.096 30.9036C136.701 31.3434 138.348 31.6279 139.986 31.9289C142.623 32.4134 145.233 32.9834 146.803 35.5224C148.505 38.2753 147.637 42.113 145.099 44.0136C142.878 45.6761 140.341 46.246 137.641 46.3271C134.644 46.4172 131.716 46.0944 128.911 44.9655C128.138 44.6544 127.411 44.2239 126.657 43.8457C127.365 42.2269 127.99 40.7902 128.622 39.3572C128.822 38.9047 128.965 38.7512 129.554 39.0744C131.54 40.1634 133.648 40.9633 135.952 40.9391C137.152 40.9265 138.352 40.8368 139.548 40.7406C139.799 40.7205 140.067 40.5599 140.274 40.395C141.569 39.3658 141.479 38.2512 139.921 37.7079C138.532 37.2234 137.047 37.0141 135.595 36.7356C133.454 36.3252 131.311 35.9929 129.451 34.6595C128.125 33.7087 127.476 32.4117 127.314 30.8463C126.813 25.9928 129.615 23.5741 133.473 22.5844C135.293 22.1177 137.242 21.9506 139.121 22.0123C141.57 22.0928 144.002 22.554 146.251 23.6875C146.742 23.9349 146.914 24.1763 146.615 24.7583C146.024 25.9071 145.531 27.1087 144.953 28.3481Z" fill="white"/>
<path d="M122.81 30.9964C122.81 36.1994 122.81 41.3065 122.81 46.4721C120.574 46.4721 118.378 46.4721 116.126 46.4721C116.126 38.6761 116.126 30.8674 116.126 23C118.307 23 120.503 23 122.81 23C122.81 25.6241 122.81 28.2623 122.81 30.9964Z" fill="white"/>
<path d="M151.641 25.4387C151.641 24.5808 151.641 23.8184 151.641 23C153.881 23 156.077 23 158.327 23C158.327 30.8021 158.327 38.6109 158.327 46.4762C156.14 46.4762 153.944 46.4762 151.641 46.4762C151.641 39.5 151.641 32.5171 151.641 25.4387Z" fill="white"/>
<path d="M117.74 12.0449C118.786 11.9708 119.804 11.7962 120.763 11.9673C122.237 12.2306 123.268 13.1361 123.605 14.7408C124.055 16.8804 122.862 18.8311 120.933 19.3795C119.46 19.7984 118.049 19.5786 116.696 18.6535C114.717 17.3001 114.841 13.5672 116.954 12.4685C117.196 12.3426 117.441 12.2222 117.74 12.0449Z" fill="white"/>
<path d="M155.011 19.6029C153.528 19.3989 152.233 19.073 151.361 17.7203C149.998 15.6056 151.064 12.8039 153.29 12.04C155.571 11.2575 157.66 12.1066 158.666 13.4906C160.108 15.4741 158.802 18.7462 156.351 19.3945C155.942 19.5028 155.514 19.5353 155.011 19.6029Z" fill="white"/>
</svg>
